<svg width="39" height="39" viewBox="0 0 39 39" fill="none" xmlns="http://www.w3.org/2000/svg">
<path d="M12.675 25.7437C12.2971 26.0612 12.0595 26.5148 12.0139 27.0062C11.9683 27.4976 12.1182 27.9872 12.4313 28.3687C12.5887 28.5586 12.782 28.7156 13.0001 28.8306C13.2183 28.9456 13.457 29.0165 13.7026 29.0391C13.9481 29.0618 14.1958 29.0357 14.4313 28.9625C14.6668 28.8893 14.8855 28.7704 15.075 28.6125C16.3284 27.6019 17.89 27.0508 19.5 27.0508C21.1101 27.0508 22.6716 27.6019 23.925 28.6125C24.1145 28.7704 24.3332 28.8893 24.5687 28.9625C24.8042 29.0357 25.0519 29.0618 25.2975 29.0391C25.543 29.0165 25.7817 28.9456 25.9999 28.8306C26.218 28.7156 26.4114 28.5586 26.5688 28.3687C26.8818 27.9872 27.0317 27.4976 26.9861 27.0062C26.9405 26.5148 26.7029 26.0612 26.325 25.7437C24.3902 24.1886 21.9823 23.3408 19.5 23.3408C17.0177 23.3408 14.6098 24.1886 12.675 25.7437ZM13.875 17.625C14.2458 17.625 14.6084 17.515 14.9167 17.309C15.225 17.103 15.4654 16.8101 15.6073 16.4675C15.7492 16.1249 15.7863 15.7479 15.714 15.3842C15.6416 15.0205 15.4631 14.6864 15.2008 14.4242C14.9386 14.162 14.6045 13.9834 14.2408 13.911C13.8771 13.8387 13.5001 13.8758 13.1575 14.0177C12.8149 14.1596 12.522 14.4 12.316 14.7083C12.11 15.0166 12 15.3792 12 15.75C12 16.2473 12.1976 16.7242 12.5492 17.0758C12.9008 17.4275 13.3777 17.625 13.875 17.625ZM19.5 0.75C15.7916 0.75 12.1665 1.84967 9.08307 3.90994C5.99964 5.97022 3.59641 8.89857 2.17727 12.3247C0.758124 15.7508 0.386812 19.5208 1.11028 23.1579C1.83376 26.7951 3.61952 30.136 6.24176 32.7583C8.86399 35.3805 12.2049 37.1663 15.8421 37.8897C19.4792 38.6132 23.2492 38.2419 26.6753 36.8227C30.1014 35.4036 33.0298 33.0004 35.0901 29.9169C37.1503 26.8335 38.25 23.2084 38.25 19.5C38.25 17.0377 37.765 14.5995 36.8228 12.3247C35.8805 10.0498 34.4994 7.98285 32.7583 6.24175C31.0172 4.50065 28.9502 3.11953 26.6753 2.17726C24.4005 1.23498 21.9623 0.75 19.5 0.75V0.75ZM19.5 34.5C16.5333 34.5 13.6332 33.6203 11.1665 31.972C8.69972 30.3238 6.77713 27.9811 5.64182 25.2403C4.5065 22.4994 4.20945 19.4834 4.78823 16.5736C5.36701 13.6639 6.79562 10.9912 8.89341 8.8934C10.9912 6.79561 13.6639 5.367 16.5737 4.78822C19.4834 4.20944 22.4994 4.50649 25.2403 5.64181C27.9812 6.77712 30.3238 8.69971 31.9721 11.1664C33.6203 13.6332 34.5 16.5333 34.5 19.5C34.5 23.4782 32.9197 27.2936 30.1066 30.1066C27.2936 32.9196 23.4783 34.5 19.5 34.5V34.5ZM25.125 13.875C24.7542 13.875 24.3917 13.985 24.0833 14.191C23.775 14.397 23.5346 14.6899 23.3927 15.0325C23.2508 15.3751 23.2137 15.7521 23.286 16.1158C23.3584 16.4795 23.537 16.8136 23.7992 17.0758C24.0614 17.338 24.3955 17.5166 24.7592 17.589C25.1229 17.6613 25.4999 17.6242 25.8425 17.4823C26.1852 17.3404 26.478 17.1 26.684 16.7917C26.89 16.4834 27 16.1208 27 15.75C27 15.2527 26.8025 14.7758 26.4508 14.4242C26.0992 14.0725 25.6223 13.875 25.125 13.875Z" fill="black"/>
</svg>
